<?xml version="1.0" encoding="UTF-8" standalone="no"?>
<!-- Created with Inkscape (http://www.inkscape.org/) -->

<svg
   xmlns:dc="http://purl.org/dc/elements/1.1/"
   xmlns:cc="http://creativecommons.org/ns#"
   xmlns:rdf="http://www.w3.org/1999/02/22-rdf-syntax-ns#"
   xmlns:svg="http://www.w3.org/2000/svg"
   xmlns="http://www.w3.org/2000/svg"
   xmlns:xlink="http://www.w3.org/1999/xlink"
   xmlns:sodipodi="http://sodipodi.sourceforge.net/DTD/sodipodi-0.dtd"
   xmlns:inkscape="http://www.inkscape.org/namespaces/inkscape"
   width="256"
   height="256"
   viewBox="0 0 256 256"
   id="svg2"
   version="1.1"
   inkscape:version="0.91 r13725"
   sodipodi:docname="warpgate.svg"
   inkscape:export-filename="/home/michiel/projects/LifeInSpace/core/assets/warpgate.png"
   inkscape:export-xdpi="90"
   inkscape:export-ydpi="90">
  <defs
     id="defs4">
    <linearGradient
       inkscape:collect="always"
       id="linearGradient4349">
      <stop
         style="stop-color:#e92929;stop-opacity:0.71794873"
         offset="0"
         id="stop4351" />
      <stop
         style="stop-color:#e92929;stop-opacity:0.26923078"
         offset="1"
         id="stop4353" />
    </linearGradient>
    <linearGradient
       inkscape:collect="always"
       id="linearGradient4165">
      <stop
         style="stop-color:#1645c8;stop-opacity:0.59615386"
         offset="0"
         id="stop4167" />
      <stop
         style="stop-color:#a7bcf5;stop-opacity:0.27058825"
         offset="1"
         id="stop4169" />
    </linearGradient>
    <radialGradient
       inkscape:collect="always"
       xlink:href="#linearGradient4165"
       id="radialGradient4171"
       cx="128"
       cy="924.22314"
       fx="128"
       fy="924.22314"
       r="74.631927"
       gradientTransform="matrix(1.3426443,0,0,6.1005612,-43.858475,-4714.0567)"
       gradientUnits="userSpaceOnUse" />
    <filter
       inkscape:collect="always"
       style="color-interpolation-filters:sRGB"
       id="filter4179"
       x="-0.01237018"
       width="1.0247404"
       y="-0.40099997"
       height="1.8019999">
      <feGaussianBlur
         inkscape:collect="always"
         stdDeviation="0.78815147"
         id="feGaussianBlur4181" />
    </filter>
    <radialGradient
       inkscape:collect="always"
       xlink:href="#linearGradient4349"
       id="radialGradient4355"
       cx="34.605862"
       cy="924.36212"
       fx="34.605862"
       fy="924.36212"
       r="15.287731"
       gradientTransform="matrix(2.2363636,-1.9031709e-6,1.80337e-5,21.190903,-43.080055,-18663.706)"
       gradientUnits="userSpaceOnUse" />
    <radialGradient
       inkscape:collect="always"
       xlink:href="#linearGradient4349"
       id="radialGradient4359"
       gradientUnits="userSpaceOnUse"
       gradientTransform="matrix(2.2363636,-1.9031709e-6,1.80337e-5,21.190903,144.26413,-18663.706)"
       cx="34.605862"
       cy="924.36212"
       fx="34.605862"
       fy="924.36212"
       r="15.287731" />
  </defs>
  <sodipodi:namedview
     id="base"
     pagecolor="#ffffff"
     bordercolor="#666666"
     borderopacity="1.0"
     inkscape:pageopacity="0.0"
     inkscape:pageshadow="2"
     inkscape:zoom="3.5976562"
     inkscape:cx="106.76792"
     inkscape:cy="47.502907"
     inkscape:document-units="px"
     inkscape:current-layer="layer1"
     showgrid="false"
     units="px"
     inkscape:object-nodes="true"
     inkscape:window-width="1920"
     inkscape:window-height="1056"
     inkscape:window-x="0"
     inkscape:window-y="24"
     inkscape:window-maximized="1" />
  <metadata
     id="metadata7">
    <rdf:RDF>
      <cc:Work
         rdf:about="">
        <dc:format>image/svg+xml</dc:format>
        <dc:type
           rdf:resource="http://purl.org/dc/dcmitype/StillImage" />
        <dc:title></dc:title>
      </cc:Work>
    </rdf:RDF>
  </metadata>
  <g
     inkscape:label="Layer 1"
     inkscape:groupmode="layer"
     id="layer1"
     transform="translate(0,-796.36216)">
    <rect
       y="813.87354"
       x="206.38437"
       height="220.9772"
       width="30.575462"
       id="rect4357"
       style="fill:url(#radialGradient4359);fill-opacity:1;stroke:none;stroke-width:3;stroke-linecap:round;stroke-linejoin:bevel;stroke-miterlimit:4;stroke-dasharray:none;stroke-opacity:1" />
    <rect
       style="fill:url(#radialGradient4355);fill-opacity:1;stroke:none;stroke-width:3;stroke-linecap:round;stroke-linejoin:bevel;stroke-miterlimit:4;stroke-dasharray:none;stroke-opacity:1"
       id="rect4329"
       width="30.575462"
       height="220.9772"
       x="19.040173"
       y="813.87354" />
    <path
       style="fill:url(#radialGradient4171);fill-opacity:1;stroke:none;stroke-width:8;stroke-linecap:round;stroke-miterlimit:4;stroke-dasharray:none;stroke-opacity:1"
       d="m 53.368076,801.92133 c 0,0 48.597784,7.73104 73.103154,7.78284 25.51905,0.0539 76.1607,-7.78284 76.1607,-7.78284 l 0,244.60367 c 0,0 -48.32217,-9.9283 -72.8252,-10.0065 -25.69682,-0.082 -76.438654,10.0065 -76.438654,10.0065 z"
       id="rect4146"
       inkscape:connector-curvature="0"
       sodipodi:nodetypes="csccscc" />
    <ellipse
       style="fill:#ffffff;fill-opacity:0.58974364;stroke:none;stroke-width:8;stroke-linecap:round;stroke-miterlimit:4;stroke-dasharray:none;stroke-opacity:1;filter:url(#filter4179)"
       id="path4173"
       cx="127.99999"
       cy="820.63385"
       rx="76.456589"
       ry="2.3585582"
       transform="matrix(0.95429449,0,0,1.0004154,5.8503057,-0.38322673)" />
    <ellipse
       ry="2.3585582"
       rx="76.456589"
       cy="843.30225"
       cx="127.99999"
       id="ellipse4183"
       style="fill:#ffffff;fill-opacity:0.58974364;stroke:none;stroke-width:8;stroke-linecap:round;stroke-miterlimit:4;stroke-dasharray:none;stroke-opacity:1;filter:url(#filter4179)"
       transform="matrix(0.95429449,0,0,1.0004154,5.8503057,-0.38322673)" />
    <ellipse
       style="fill:#ffffff;fill-opacity:0.58974364;stroke:none;stroke-width:8;stroke-linecap:round;stroke-miterlimit:4;stroke-dasharray:none;stroke-opacity:1;filter:url(#filter4179)"
       id="ellipse4185"
       cx="127.99999"
       cy="865.97058"
       rx="76.456589"
       ry="2.3585582"
       transform="matrix(0.95429449,0,0,1.0004154,5.8503057,-0.38322673)" />
    <ellipse
       ry="2.3585582"
       rx="76.456589"
       cy="888.63898"
       cx="127.99999"
       id="ellipse4187"
       style="fill:#ffffff;fill-opacity:0.58974364;stroke:none;stroke-width:8;stroke-linecap:round;stroke-miterlimit:4;stroke-dasharray:none;stroke-opacity:1;filter:url(#filter4179)"
       transform="matrix(0.95429449,0,0,1.0004154,5.8503057,-0.38322673)" />
    <ellipse
       style="fill:#ffffff;fill-opacity:0.58974364;stroke:none;stroke-width:8;stroke-linecap:round;stroke-miterlimit:4;stroke-dasharray:none;stroke-opacity:1;filter:url(#filter4179)"
       id="ellipse4189"
       cx="127.99999"
       cy="911.30731"
       rx="76.456589"
       ry="2.3585582"
       transform="matrix(0.95429449,0,0,1.0004154,5.8503057,-0.38322673)" />
    <ellipse
       ry="2.3585582"
       rx="76.456589"
       cy="933.97571"
       cx="127.99999"
       id="ellipse4191"
       style="fill:#ffffff;fill-opacity:0.58974364;stroke:none;stroke-width:8;stroke-linecap:round;stroke-miterlimit:4;stroke-dasharray:none;stroke-opacity:1;filter:url(#filter4179)"
       transform="matrix(0.95429449,0,0,1.0004154,5.8503057,-0.38322673)" />
    <ellipse
       style="fill:#ffffff;fill-opacity:0.58974364;stroke:none;stroke-width:8;stroke-linecap:round;stroke-miterlimit:4;stroke-dasharray:none;stroke-opacity:1;filter:url(#filter4179)"
       id="ellipse4193"
       cx="127.99999"
       cy="956.64404"
       rx="76.456589"
       ry="2.3585582"
       transform="matrix(0.95429449,0,0,1.0004154,5.8503057,-0.38322673)" />
    <ellipse
       ry="2.3585582"
       rx="76.456589"
       cy="979.31244"
       cx="127.99999"
       id="ellipse4195"
       style="fill:#ffffff;fill-opacity:0.58974364;stroke:none;stroke-width:8;stroke-linecap:round;stroke-miterlimit:4;stroke-dasharray:none;stroke-opacity:1;filter:url(#filter4179)"
       transform="matrix(0.95429449,0,0,1.0004154,5.8503057,-0.38322673)" />
    <ellipse
       style="fill:#ffffff;fill-opacity:0.58974364;stroke:none;stroke-width:8;stroke-linecap:round;stroke-miterlimit:4;stroke-dasharray:none;stroke-opacity:1;filter:url(#filter4179)"
       id="ellipse4197"
       cx="127.99999"
       cy="1001.9808"
       rx="76.456589"
       ry="2.3585582"
       transform="matrix(0.95429449,0,0,1.0004154,5.8503057,-0.38322673)" />
    <ellipse
       ry="2.3585582"
       rx="76.456589"
       cy="1024.6492"
       cx="127.99999"
       id="ellipse4199"
       style="fill:#ffffff;fill-opacity:0.58974364;stroke:none;stroke-width:8;stroke-linecap:round;stroke-miterlimit:4;stroke-dasharray:none;stroke-opacity:1;filter:url(#filter4179)"
       transform="matrix(0.95429449,0,0,1.0004154,5.8503057,-0.38322673)" />
    <path
       style="fill:#b3b3b3;fill-opacity:1;stroke:#6c6c6c;stroke-width:3;stroke-linecap:round;stroke-miterlimit:4;stroke-dasharray:none;stroke-opacity:1;stroke-linejoin:bevel"
       d="M 15.566406 5.5585938 L 15.566406 250.16211 L 26.582031 250.16211 L 26.582031 245.51953 L 41.912109 245.51953 L 41.912109 250.16211 L 53.367188 250.16211 L 53.367188 5.5585938 L 41.912109 5.5585938 L 41.912109 10.482422 L 26.582031 10.482422 L 26.582031 5.5585938 L 15.566406 5.5585938 z M 24.246094 26.041016 L 44.6875 26.041016 L 44.6875 46.482422 L 24.246094 46.482422 L 24.246094 26.041016 z M 24.246094 62.681641 L 44.6875 62.681641 L 44.6875 83.121094 L 24.246094 83.121094 L 24.246094 62.681641 z M 24.246094 99.320312 L 44.6875 99.320312 L 44.6875 119.76172 L 24.246094 119.76172 L 24.246094 99.320312 z M 24.246094 135.95898 L 44.6875 135.95898 L 44.6875 156.40039 L 24.246094 156.40039 L 24.246094 135.95898 z M 24.246094 172.59961 L 44.6875 172.59961 L 44.6875 193.03906 L 24.246094 193.03906 L 24.246094 172.59961 z M 24.246094 209.23828 L 44.6875 209.23828 L 44.6875 229.67969 L 24.246094 229.67969 L 24.246094 209.23828 z "
       transform="translate(0,796.36216)"
       id="path4303" />
    <path
       style="fill:#b3b3b3;fill-opacity:1;stroke:#6c6c6c;stroke-width:3;stroke-linecap:round;stroke-miterlimit:4;stroke-dasharray:none;stroke-opacity:1;stroke-linejoin:bevel"
       d="M 202.63281 5.5585938 L 202.63281 250.16211 L 214.08789 250.16211 L 214.08789 245.51953 L 229.41797 245.51953 L 229.41797 250.16211 L 240.43359 250.16211 L 240.43359 5.5585938 L 229.41797 5.5585938 L 229.41797 10.482422 L 214.08789 10.482422 L 214.08789 5.5585938 L 202.63281 5.5585938 z M 211.3125 26.041016 L 231.75391 26.041016 L 231.75391 46.482422 L 211.3125 46.482422 L 211.3125 26.041016 z M 211.3125 62.681641 L 231.75391 62.681641 L 231.75391 83.121094 L 211.3125 83.121094 L 211.3125 62.681641 z M 211.3125 99.320312 L 231.75391 99.320312 L 231.75391 119.76172 L 211.3125 119.76172 L 211.3125 99.320312 z M 211.3125 135.95898 L 231.75391 135.95898 L 231.75391 156.40039 L 211.3125 156.40039 L 211.3125 135.95898 z M 211.3125 172.59961 L 231.75391 172.59961 L 231.75391 193.03906 L 211.3125 193.03906 L 211.3125 172.59961 z M 211.3125 209.23828 L 231.75391 209.23828 L 231.75391 229.67969 L 211.3125 229.67969 L 211.3125 209.23828 z "
       transform="translate(0,796.36216)"
       id="rect4136" />
  </g>
</svg>
